# xmcd
#
# Track frame offsets:
#	150
#	16894
#	33494
#	50704
#	62718
#	86586
#	101676
#	122880
#	138050
#	155673
#	174913
#	191683
#	204560
#	221260
#	235205
#	251795
#	269261
#	287650
#	297397
#
# Disc length: 4141 seconds
#
# Revision: 1
# Processed by: cddbd v1.5.2PL0 Copyright (c) Steve Scherf et al.
# Submitted via: audiograbber 1.83.01
#
DISCID=1b102b13
DTITLE=ZIGO AGUIAR - BEBENDO DA FONTE
DYEAR=1900
DGENRE=
TTITLE0=ÁGUAS DE MARÇO
TTITLE1=WAVE
TTITLE2=GAROTA DE IPANEMA
TTITLE3=SAMBA DO AVIÃO
TTITLE4=POUT-POURRI
TTITLE5=MADALENA
TTITLE6=DESAFINADO
TTITLE7=CORCOVADO
TTITLE8=EU E A BRISA
TTITLE9=MINHA MUSA
TTITLE10=JOÃO E MARIA
TTITLE11=O CADERNO
TTITLE12=ROSA
TTITLE13=SÓ LOUCO
TTITLE14=EU TE QUERO
TTITLE15=EU SEI QUE VOU TE AMAR
TTITLE16=TOCANDO EM FRENTE
TTITLE17=LUIZA
TTITLE18=SE TODOS FOSSEM IGUAIS A VOCÊ
EXTD=
EXTT0=
EXTT1=
EXTT2=
EXTT3=
EXTT4=
EXTT5=
EXTT6=
EXTT7=
EXTT8=
EXTT9=
EXTT10=
EXTT11=
EXTT12=
EXTT13=
EXTT14=
EXTT15=
EXTT16=
EXTT17=
EXTT18=
PLAYORDER=
